# xmcd
# 
# Track frame offsets:
#     187
#     18537
#     32625
#     48237
#     67237
#     86275
#     105305
#     123087
#     146750
#     169537
#     190370
#     209975
#     233445
#     252862
#     271362
#     291820
# 
# Disc length: 4092
# 
# Revision: 1
# Processed by: cddbd v1.5.2PL0 Copyright (c) Steve Scherf et al.
# Submitted via: fre:ac v1.1beta1pre2
# 
DISCID=e20ffa10
DTITLE=アリス - Best
DYEAR=1995
DGENRE=J-Pop
TTITLE0=帰らざる日々
TTITLE1=冬の稲妻
TTITLE2=涙の誓い
TTITLE3=チャンピオン
TTITLE4=終止符
TTITLE5=狂った果実
TTITLE6=ピンク・シャンパン
TTITLE7=それぞれの秋
TTITLE8=過ぎゆくものは…
TTITLE9=エスピオナージ
TTITLE10=GUILTY&PENALTY (罪と罰)
TTITLE11=雨の朝東京に死す (The last time I saw Tokyo)
TTITLE12=BURAI
TTITLE13=平凡
TTITLE14=昴 -すばる-
TTITLE15=南回帰線
EXTD=YEAR: 1995
EXTT0=
EXTT1=
EXTT2=
EXTT3=
EXTT4=
EXTT5=
EXTT6=
EXTT7=
EXTT8=
EXTT9=
EXTT10=
EXTT11=
EXTT12=
EXTT13=
EXTT14=
EXTT15=
PLAYORDER=
